<svg width="174" height="104" viewBox="0 0 174 104" fill="none" xmlns="http://www.w3.org/2000/svg">
<path d="M17 104L17 76L43 76L17 104Z" fill="#1D4ED8"/>
<path d="M120.64 41.6156C117.588 40.1713 117.588 35.8287 120.64 34.3844L153.039 19.052C155.693 17.7962 158.75 19.7318 158.75 22.6676L158.75 53.3324C158.75 56.2682 155.693 58.2038 153.039 56.948L120.64 41.6156Z" fill="#1D4ED8"/>
<path fill-rule="evenodd" clip-rule="evenodd" d="M8 0C3.58173 0 0 3.58173 0 8V68C0 72.4183 3.58173 76 8 76H118C122.418 76 126 72.4183 126 68V8C126 3.58173 122.418 0 118 0H8ZM17 13C14.2386 13 12 15.2386 12 18V58C12 60.7614 14.2386 63 17 63H108C110.761 63 113 60.7614 113 58V18C113 15.2386 110.761 13 108 13H17Z" fill="#1D4ED8"/>
</svg>
