<svg width="356" height="235" viewBox="0 0 356 235" fill="none" xmlns="http://www.w3.org/2000/svg">
<path d="M43 235L43 179L107 179L43 235Z" fill="#1D4ED8"/>
<path d="M222.329 95.6132C218.514 93.2714 218.514 87.7286 222.329 85.3868L311.361 30.726C315.359 28.2716 320.5 31.1482 320.5 35.8393L320.5 145.161C320.5 149.852 315.359 152.728 311.361 150.274L222.329 95.6132Z" fill="#1D4ED8"/>
<path fill-rule="evenodd" clip-rule="evenodd" d="M22 0C9.84974 0 0 9.84973 0 22V157C0 169.15 9.84974 179 22 179H211C223.15 179 233 169.15 233 157V22C233 9.84974 223.15 0 211 0H22ZM22 14C17.0294 14 13 18.0294 13 23V157C13 161.971 17.0294 166 22 166H209C213.971 166 218 161.971 218 157V23C218 18.0294 213.971 14 209 14H22Z" fill="#1D4ED8"/>
<rect x="25" y="28" width="69" height="12" fill="#1D4ED8"/>
<rect x="25" y="51" width="68" height="10" fill="#1D4ED8"/>
<rect x="110" y="77" width="94" height="11" fill="#1D4ED8"/>
<rect x="143" y="99" width="61" height="11" fill="#1D4ED8"/>
<rect x="25" y="121" width="145" height="12" fill="#1D4ED8"/>
<line x1="9" y1="143" x2="225" y2="143" stroke="#1D4ED8" stroke-width="4"/>
<path d="M35 154.5L20.75 160.129L20.75 148.871L35 154.5Z" fill="#1D4ED8"/>
</svg>
